IKResults
version=1
nRows=14
nColumns=45
inDegrees=yes

Units are S.I. units (second, meters, Newtons, ...)
If the header above contains a line with 'inDegrees', this indicates whether rotational values are in degrees (yes) or radians (no).

endheader
time	pelvis_tilt	pelvis_list	pelvis_rotation	pelvis_tx	pelvis_ty	pelvis_tz	hip_flexion_r	hip_adduction_r	hip_rotation_r	knee_angle_r	knee_adduction_r	knee_angle_r_beta	ankle_angle_r	subtalar_angle_r	mtp_angle_r	hip_flexion_l	hip_adduction_l	hip_rotation_l	knee_angle_l	knee_adduction_l	knee_angle_l_beta	ankle_angle_l	subtalar_angle_l	mtp_angle_l	lumbar_extension	lumbar_bending	lumbar_rotation	thoracic_extension	thoracic_bending	thoracic_rotation	arm_flex_r	arm_add_r	arm_rot_r	elbow_flex_r	pro_sup_r	wrist_flex_r	wrist_dev_r	arm_flex_l	arm_add_l	arm_rot_l	elbow_flex_l	pro_sup_l	wrist_flex_l	wrist_dev_l
      1.69500000	      7.43182793	      1.78378172	     -4.75631746	      0.59144514	      0.96664943	      0.46714614	     21.43976808	     -0.89222492	      0.92692514	     58.99180974	      0.00000001	      1.02960131	      9.49542590	    -11.08249243	    -16.24218759	     -7.13349467	      5.32003297	      2.88655710	     14.03073707	      0.00000000	      0.24488256	     14.76198738	    -14.54105629	     -9.13230326	    -12.82930636	     -1.42826277	     -3.51649839	      0.00000000	      0.00000000	      0.00000000	     -1.51839558	    -11.32016899	      2.60136112	     24.48869314	     89.99911678	      0.00000000	      0.00000000	      7.59961092	    -18.84422342	      8.41338587	     46.02681498	     89.99945425	      0.00000000	      0.00000000
      1.70742857	      7.91040542	      1.31156321	     -4.61834061	      0.58982921	      0.96784849	      0.46745870	     20.90992218	     -0.31288212	      0.75097551	     55.13360235	      0.00000001	      0.96226289	      9.17691295	    -10.83573782	    -16.28931740	     -8.99153867	      4.78590872	      2.97846065	     12.94561683	      0.00000000	      0.22594364	     14.45469616	    -14.21602793	     -9.60005818	    -13.57511191	     -0.94962939	     -3.92773604	      0.00000000	      0.00000000	      0.00000000	     -1.93981497	    -11.25916660	      1.84190837	     24.24280554	     89.99911678	      0.00000000	      0.00000000	      8.12457453	    -19.36267824	      7.88550990	     47.74564877	     89.99945425	      0.00000000	      0.00000000
      1.71985714	      7.61651427	      1.22298087	     -4.68201407	      0.58806943	      0.96758529	      0.46794383	     21.36840472	     -0.02501604	      0.91571046	     51.43069988	      0.00000001	      0.89763505	      8.91074745	    -10.80656438	    -16.14605525	     -9.85662248	      4.65830273	      3.06274494	     12.07062732	      0.00000000	      0.21067219	     14.28237550	    -14.11973191	     -9.75143796	    -13.40063481	     -0.85245752	     -4.03940027	      0.00000000	      0.00000000	      0.00000000	     -2.46950047	    -11.16448920	      1.49716601	     23.90782310	     89.99911678	      0.00000000	      0.00000000	      8.75595592	    -19.76320915	      7.66321182	     48.96349094	     89.99945425	      0.00000000	      0.00000000
      1.73228571	      7.47117073	      1.08655476	     -4.63982976	      0.58620967	      0.96742601	      0.46847402	     21.38280719	      0.26689113	      0.98776896	     47.25677439	      0.00000001	      0.82478631	      8.33974118	    -11.11368363	    -16.10388262	    -10.83074880	      4.46058405	      3.21240779	     11.29168135	      0.00000000	      0.19707702	     14.08239435	    -13.92769688	    -10.04440917	    -13.44575079	     -0.70729547	     -4.25402270	      0.00000000	      0.00000000	      0.00000000	     -2.93721885	    -11.13766534	      1.08487380	     23.77712220	     89.99911678	      0.00000000	      0.00000000	      9.37702739	    -20.22182628	      7.30822109	     50.24560502	     89.99945425	      0.00000000	      0.00000000
      1.74471429	      7.21624451	      0.99298342	     -4.59959774	      0.58448637	      0.96697165	      0.46906306	     21.31428103	      0.51099952	      1.11840663	     42.75544679	      0.00000001	      0.74622332	      7.64796579	    -11.53611894	    -16.35496337	    -11.66824163	      4.29482507	      3.37458326	     10.54251342	      0.00000000	      0.18400157	     13.90638712	    -13.75251172	    -10.47786757	    -13.35790282	     -0.59868315	     -4.44366499	      0.00000000	      0.00000000	      0.00000000	     -3.41760519	    -11.07685225	      0.66881684	     23.73152136	     89.99911678	      0.00000000	      0.00000000	      9.93239341	    -20.61106969	      6.97618469	     51.47016691	     89.99945425	      0.00000000	      0.00000000
      1.75714286	      6.87770155	      0.95660455	     -4.59657654	      0.58274651	      0.96620668	      0.46975693	     21.17922193	      0.71165529	      1.36810356	     38.00435148	      0.00000001	      0.66330106	      6.93384548	    -12.00486266	    -16.63787523	    -12.36695581	      4.19106111	      3.53585268	      9.87713036	      0.00000000	      0.17238845	     13.71921731	    -13.68824051	    -10.86261521	    -13.17630266	     -0.54953682	     -4.57035757	      0.00000000	      0.00000000	      0.00000000	     -3.82167966	    -11.02258101	      0.31354807	     23.60901054	     89.99911678	      0.00000000	      0.00000000	     10.50169838	    -20.95992184	      6.71398454	     52.57196244	     89.99945425	      0.00000000	      0.00000000
      1.76957143	      6.10364998	      1.13883301	     -4.75013602	      0.58111657	      0.96459312	      0.47059981	     21.54016322	      0.72691908	      1.74701044	     33.31926230	      0.00000001	      0.58153083	      6.53471798	    -11.84727126	    -16.64161275	    -12.52832839	      4.33597556	      3.64158526	      9.33182301	      0.00000000	      0.16287104	     13.66119381	    -13.70000476	    -10.99517737	    -12.45688619	     -0.72739780	     -4.52596739	      0.00000000	      0.00000000	      0.00000000	     -4.26395596	    -10.97717096	      0.14575218	     23.51486568	     89.99911678	      0.00000000	      0.00000000	     10.98776497	    -21.26909577	      6.61801669	     53.48586892	     89.99945425	      0.00000000	      0.00000000
      1.78200000	      6.14501650	      1.02177016	     -4.58323510	      0.57956330	      0.96402942	      0.47132358	     20.47503338	      0.91354127	      2.01188625	     27.87027459	      0.00000001	      0.48642806	      5.52447305	    -12.55287706	    -17.31673645	    -13.56765292	      4.11619738	      3.86571348	      8.82075710	      0.00000000	      0.15395125	     13.46988420	    -13.58756859	    -11.71008523	    -12.74758702	     -0.58858246	     -4.80266614	      0.00000000	      0.00000000	      0.00000000	     -4.54809819	    -10.91440252	     -0.32411070	     23.55241500	     89.99911678	      0.00000000	      0.00000000	     11.48019367	    -21.58509872	      6.25556792	     54.61918660	     89.99945425	      0.00000000	      0.00000000
      1.79442857	      5.73903339	      1.17403696	     -4.58736493	      0.57813943	      0.96251940	      0.47218079	     20.03431974	      0.86378423	      2.45749615	     22.76867488	      0.00000001	      0.39738834	      4.85622439	    -12.53134202	    -18.11145595	    -14.04146644	      4.19509179	      3.94786821	      8.44959857	      0.00000000	      0.14747332	     13.33070104	    -13.50180967	    -12.48350290	    -12.48191634	     -0.73304024	     -4.86092120	      0.00000000	      0.00000000	      0.00000000	     -4.90584620	    -10.85544919	     -0.77902887	     23.62474287	     89.99911678	      0.00000000	      0.00000000	     11.90907587	    -21.85124287	      6.05752210	     55.62230308	     89.99945425	      0.00000000	      0.00000000
      1.80685714	      5.04216448	      1.51090301	     -4.70818402	      0.57687147	      0.96033502	      0.47313887	     20.05964598	      0.65156390	      2.97887555	     18.13625146	      0.00000001	      0.31653730	      4.67569732	    -11.84568492	    -18.26962106	    -14.12030857	      4.48976268	      3.99507499	      8.23922626	      0.00000000	      0.14380163	     13.30508910	    -13.49188806	    -12.78745603	    -11.82729856	     -1.05056019	     -4.77029094	      0.00000000	      0.00000000	      0.00000000	     -5.26403018	    -10.81602179	     -0.94429068	     23.55589374	     89.99911678	      0.00000000	      0.00000000	     12.30557820	    -22.06066860	      6.06526731	     56.37164959	     89.99945425	      0.00000000	      0.00000000
      1.81928571	      4.76990745	      1.76418738	     -4.58073864	      0.57566226	      0.95858164	      0.47393283	     19.46461016	      0.41012617	      3.41222519	     13.57395502	      0.00000001	      0.23691021	      4.49779300	    -11.26431773	    -18.42836449	    -14.58665150	      4.65233607	      4.12137171	      8.15456001	      0.00000000	      0.14232392	     13.29793230	    -13.29776819	    -13.45559500	    -11.72067856	     -1.28601088	     -4.92655629	      0.00000000	      0.00000000	      0.00000000	     -5.52662115	    -10.76769086	     -1.32309039	     23.73556674	     89.99911678	      0.00000000	      0.00000000	     12.67360986	    -22.27981685	      5.91018039	     57.30798106	     89.99945425	      0.00000000	      0.00000000
      1.83171429	      4.43832629	      2.08262192	     -4.61795798	      0.57464087	      0.95649217	      0.47494407	     19.18197951	      0.15367353	      3.94516036	      9.83460315	      0.00000001	      0.17164621	      4.70687184	    -10.24133168	    -18.42510280	    -14.94188797	      4.91083181	      3.98234645	      8.20092482	      0.00000000	      0.14313314	     13.29800027	    -13.09726145	    -14.22032388	    -11.49908478	     -1.59577058	     -4.90216980	      0.00000000	      0.00000000	      0.00000000	     -5.75125027	    -10.72347478	     -1.73497546	     23.84456875	     89.99911678	      0.00000000	      0.00000000	     12.96846976	    -22.46133652	      5.81663821	     58.11731463	     89.99945425	      0.00000000	      0.00000000
      1.84414286	      3.97346119	      2.49261815	     -4.82896685	      0.57357687	      0.95405237	      0.47616959	     19.40728042	     -0.09196639	      4.76926311	      7.15176562	      0.00000001	      0.12482186	      5.30561588	     -9.28038827	    -18.56116488	    -15.06630538	      5.31123260	      3.82766509	      8.39888411	      0.00000000	      0.14658818	     13.35184414	    -13.02163329	    -14.39587863	    -11.12117350	     -2.01311138	     -4.58688771	      0.00000000	      0.00000000	      0.00000000	     -5.93317026	    -10.72020617	     -1.79393656	     23.72346861	     89.99911678	      0.00000000	      0.00000000	     13.37020942	    -22.50675677	      5.79131143	     58.62568075	     89.99945425	      0.00000000	      0.00000000
      1.85657143	      3.65192206	      2.72671345	     -4.88089509	      0.57307174	      0.95188371	      0.47728959	     19.46912295	     -0.20524778	      5.34200112	      5.08485351	      0.00000001	      0.08874744	      5.85049822	     -8.35866055	    -18.56665597	    -15.32875771	      5.48230874	      3.54241788	      8.71823739	      0.00000000	      0.15216195	     13.52114547	    -12.81736495	    -14.71669631	    -10.85078441	     -2.21348212	     -4.50427634	      0.00000000	      0.00000000	      0.00000000	     -6.05563350	    -10.75001562	     -1.91364990	     23.76647552	     89.99911678	      0.00000000	      0.00000000	     13.51724144	    -22.55532363	      5.83122039	     59.14866986	     89.99945425	      0.00000000	      0.00000000
